<mxfile host="app.diagrams.net" agent="Mozilla/5.0 (X11; Ubuntu; Linux x86_64; rv:138.0) Gecko/20100101 Firefox/138.0" version="26.2.14">
  <diagram name="Page-1" id="DMe8cowrnsIi6OyU7-Dr">
    <mxGraphModel dx="1356" dy="763" grid="1" gridSize="10" guides="1" tooltips="1" connect="1" arrows="1" fold="1" page="1" pageScale="1" pageWidth="850" pageHeight="1100" math="0" shadow="0">
      <root>
        <mxCell id="0" />
        <mxCell id="1" parent="0" />
        <mxCell id="NtBQqP2QdUCN2QcjrBfT-3" style="edgeStyle=orthogonalEdgeStyle;rounded=0;orthogonalLoop=1;jettySize=auto;html=1;entryX=0.5;entryY=0;entryDx=0;entryDy=0;" edge="1" parent="1" source="NtBQqP2QdUCN2QcjrBfT-1" target="NtBQqP2QdUCN2QcjrBfT-2">
          <mxGeometry relative="1" as="geometry" />
        </mxCell>
        <mxCell id="NtBQqP2QdUCN2QcjrBfT-1" value="A" style="ellipse;whiteSpace=wrap;html=1;aspect=fixed;fontStyle=1;fillColor=#e1d5e7;strokeColor=#9673a6;" vertex="1" parent="1">
          <mxGeometry x="225" y="210" width="50" height="50" as="geometry" />
        </mxCell>
        <mxCell id="NtBQqP2QdUCN2QcjrBfT-18" style="edgeStyle=orthogonalEdgeStyle;rounded=0;orthogonalLoop=1;jettySize=auto;html=1;exitX=0.5;exitY=1;exitDx=0;exitDy=0;entryX=0.5;entryY=0;entryDx=0;entryDy=0;" edge="1" parent="1" source="NtBQqP2QdUCN2QcjrBfT-2" target="NtBQqP2QdUCN2QcjrBfT-17">
          <mxGeometry relative="1" as="geometry" />
        </mxCell>
        <mxCell id="NtBQqP2QdUCN2QcjrBfT-2" value="&lt;i&gt;fork()&lt;/i&gt;" style="rounded=0;whiteSpace=wrap;html=1;fillColor=#ffe6cc;strokeColor=#d79b00;" vertex="1" parent="1">
          <mxGeometry x="190" y="320" width="120" height="40" as="geometry" />
        </mxCell>
        <mxCell id="NtBQqP2QdUCN2QcjrBfT-4" value="&lt;i&gt;Parent process running program &quot;A&quot;&lt;/i&gt;" style="text;html=1;align=center;verticalAlign=middle;whiteSpace=wrap;rounded=0;" vertex="1" parent="1">
          <mxGeometry x="195" y="170" width="110" height="30" as="geometry" />
        </mxCell>
        <mxCell id="NtBQqP2QdUCN2QcjrBfT-11" style="edgeStyle=orthogonalEdgeStyle;rounded=0;orthogonalLoop=1;jettySize=auto;html=1;exitX=0.5;exitY=1;exitDx=0;exitDy=0;entryX=0.5;entryY=0;entryDx=0;entryDy=0;" edge="1" parent="1" source="NtBQqP2QdUCN2QcjrBfT-5" target="NtBQqP2QdUCN2QcjrBfT-10">
          <mxGeometry relative="1" as="geometry" />
        </mxCell>
        <mxCell id="NtBQqP2QdUCN2QcjrBfT-5" value="A" style="ellipse;whiteSpace=wrap;html=1;aspect=fixed;fontStyle=1;fillColor=#6a00ff;strokeColor=#3700CC;fontColor=#ffffff;" vertex="1" parent="1">
          <mxGeometry x="550" y="400" width="50" height="50" as="geometry" />
        </mxCell>
        <mxCell id="NtBQqP2QdUCN2QcjrBfT-6" style="edgeStyle=orthogonalEdgeStyle;rounded=0;orthogonalLoop=1;jettySize=auto;html=1;entryX=0.5;entryY=0;entryDx=0;entryDy=0;" edge="1" parent="1">
          <mxGeometry relative="1" as="geometry">
            <mxPoint x="574.5" y="340" as="sourcePoint" />
            <mxPoint x="574.5" y="400" as="targetPoint" />
          </mxGeometry>
        </mxCell>
        <mxCell id="NtBQqP2QdUCN2QcjrBfT-7" value="&lt;i&gt;Child process running program &quot;A&quot;&lt;/i&gt;" style="text;html=1;align=center;verticalAlign=middle;whiteSpace=wrap;rounded=0;" vertex="1" parent="1">
          <mxGeometry x="520" y="310" width="110" height="30" as="geometry" />
        </mxCell>
        <mxCell id="NtBQqP2QdUCN2QcjrBfT-8" value="" style="endArrow=classic;html=1;rounded=0;exitX=0.5;exitY=1;exitDx=0;exitDy=0;entryX=0;entryY=0.5;entryDx=0;entryDy=0;" edge="1" parent="1" source="NtBQqP2QdUCN2QcjrBfT-2" target="NtBQqP2QdUCN2QcjrBfT-5">
          <mxGeometry width="50" height="50" relative="1" as="geometry">
            <mxPoint x="430" y="480" as="sourcePoint" />
            <mxPoint x="480" y="430" as="targetPoint" />
          </mxGeometry>
        </mxCell>
        <mxCell id="NtBQqP2QdUCN2QcjrBfT-9" value="Memory of parent copied to child" style="text;html=1;align=center;verticalAlign=middle;whiteSpace=wrap;rounded=0;rotation=15;" vertex="1" parent="1">
          <mxGeometry x="320" y="360" width="190" height="30" as="geometry" />
        </mxCell>
        <mxCell id="NtBQqP2QdUCN2QcjrBfT-14" style="edgeStyle=orthogonalEdgeStyle;rounded=0;orthogonalLoop=1;jettySize=auto;html=1;exitX=0.5;exitY=1;exitDx=0;exitDy=0;entryX=0.5;entryY=0;entryDx=0;entryDy=0;" edge="1" parent="1" source="NtBQqP2QdUCN2QcjrBfT-10" target="NtBQqP2QdUCN2QcjrBfT-13">
          <mxGeometry relative="1" as="geometry" />
        </mxCell>
        <mxCell id="NtBQqP2QdUCN2QcjrBfT-10" value="&lt;i&gt;execve(B, ...) (optional)&lt;/i&gt;" style="rounded=0;whiteSpace=wrap;html=1;fillColor=#dae8fc;strokeColor=#6c8ebf;" vertex="1" parent="1">
          <mxGeometry x="515" y="530" width="120" height="60" as="geometry" />
        </mxCell>
        <mxCell id="NtBQqP2QdUCN2QcjrBfT-12" value="Child may perform further actions here" style="text;html=1;align=center;verticalAlign=middle;whiteSpace=wrap;rounded=0;" vertex="1" parent="1">
          <mxGeometry x="575" y="470" width="155" height="30" as="geometry" />
        </mxCell>
        <mxCell id="NtBQqP2QdUCN2QcjrBfT-16" style="edgeStyle=orthogonalEdgeStyle;rounded=0;orthogonalLoop=1;jettySize=auto;html=1;exitX=0.5;exitY=1;exitDx=0;exitDy=0;" edge="1" parent="1" source="NtBQqP2QdUCN2QcjrBfT-13" target="NtBQqP2QdUCN2QcjrBfT-15">
          <mxGeometry relative="1" as="geometry" />
        </mxCell>
        <mxCell id="NtBQqP2QdUCN2QcjrBfT-13" value="B" style="ellipse;whiteSpace=wrap;html=1;aspect=fixed;fontStyle=1;fillColor=#a20025;strokeColor=#6F0000;fontColor=#ffffff;" vertex="1" parent="1">
          <mxGeometry x="550" y="640" width="50" height="50" as="geometry" />
        </mxCell>
        <mxCell id="NtBQqP2QdUCN2QcjrBfT-15" value="&lt;i&gt;exit(status)&lt;/i&gt;" style="rounded=0;whiteSpace=wrap;html=1;fillColor=#d5e8d4;strokeColor=#82b366;" vertex="1" parent="1">
          <mxGeometry x="515" y="750" width="120" height="60" as="geometry" />
        </mxCell>
        <mxCell id="NtBQqP2QdUCN2QcjrBfT-17" value="&lt;i&gt;wait(status) (optional)&lt;/i&gt;" style="rounded=0;whiteSpace=wrap;html=1;fillColor=#f8cecc;strokeColor=#b85450;" vertex="1" parent="1">
          <mxGeometry x="190" y="530" width="120" height="60" as="geometry" />
        </mxCell>
        <mxCell id="NtBQqP2QdUCN2QcjrBfT-19" value="Parent may perform other actions here" style="text;html=1;align=center;verticalAlign=middle;whiteSpace=wrap;rounded=0;" vertex="1" parent="1">
          <mxGeometry x="110" y="420" width="140" height="30" as="geometry" />
        </mxCell>
        <mxCell id="NtBQqP2QdUCN2QcjrBfT-20" value="" style="endArrow=classic;html=1;rounded=0;entryX=1;entryY=0.5;entryDx=0;entryDy=0;exitX=0.5;exitY=0;exitDx=0;exitDy=0;dashed=1;" edge="1" parent="1" source="NtBQqP2QdUCN2QcjrBfT-15" target="NtBQqP2QdUCN2QcjrBfT-17">
          <mxGeometry width="50" height="50" relative="1" as="geometry">
            <mxPoint x="430" y="600" as="sourcePoint" />
            <mxPoint x="480" y="550" as="targetPoint" />
          </mxGeometry>
        </mxCell>
        <mxCell id="NtBQqP2QdUCN2QcjrBfT-21" value="Execution of program &quot;B&quot;" style="text;html=1;align=center;verticalAlign=middle;whiteSpace=wrap;rounded=0;" vertex="1" parent="1">
          <mxGeometry x="580" y="700" width="140" height="30" as="geometry" />
        </mxCell>
        <mxCell id="NtBQqP2QdUCN2QcjrBfT-22" value="Child status passed to parent" style="text;html=1;align=center;verticalAlign=middle;whiteSpace=wrap;rounded=0;rotation=35;" vertex="1" parent="1">
          <mxGeometry x="357.29" y="618.6" width="170" height="30" as="geometry" />
        </mxCell>
        <mxCell id="NtBQqP2QdUCN2QcjrBfT-23" value="" style="endArrow=classic;html=1;rounded=0;exitX=0.5;exitY=1;exitDx=0;exitDy=0;dashed=1;" edge="1" parent="1" source="NtBQqP2QdUCN2QcjrBfT-17">
          <mxGeometry width="50" height="50" relative="1" as="geometry">
            <mxPoint x="430" y="600" as="sourcePoint" />
            <mxPoint x="250" y="840" as="targetPoint" />
          </mxGeometry>
        </mxCell>
        <mxCell id="NtBQqP2QdUCN2QcjrBfT-24" value="" style="endArrow=classic;html=1;rounded=0;exitX=0;exitY=0.4;exitDx=0;exitDy=0;exitPerimeter=0;dashed=1;" edge="1" parent="1" source="NtBQqP2QdUCN2QcjrBfT-15">
          <mxGeometry width="50" height="50" relative="1" as="geometry">
            <mxPoint x="430" y="600" as="sourcePoint" />
            <mxPoint x="250" y="774" as="targetPoint" />
          </mxGeometry>
        </mxCell>
        <mxCell id="NtBQqP2QdUCN2QcjrBfT-25" value="Execution of parent suspended" style="text;html=1;align=center;verticalAlign=middle;whiteSpace=wrap;rounded=0;" vertex="1" parent="1">
          <mxGeometry x="130" y="640" width="110" height="80" as="geometry" />
        </mxCell>
        <mxCell id="NtBQqP2QdUCN2QcjrBfT-26" value="kernel restarts parent and optionally delivers &lt;i&gt;SIGCHLD&lt;/i&gt;" style="text;html=1;align=center;verticalAlign=middle;whiteSpace=wrap;rounded=0;" vertex="1" parent="1">
          <mxGeometry x="320" y="780" width="160" height="80" as="geometry" />
        </mxCell>
        <mxCell id="NtBQqP2QdUCN2QcjrBfT-28" style="edgeStyle=orthogonalEdgeStyle;rounded=0;orthogonalLoop=1;jettySize=auto;html=1;exitX=0;exitY=0.5;exitDx=0;exitDy=0;entryX=1;entryY=0.5;entryDx=0;entryDy=0;dashed=1;fillColor=#fff2cc;strokeColor=#d6b656;" edge="1" parent="1" source="NtBQqP2QdUCN2QcjrBfT-27" target="NtBQqP2QdUCN2QcjrBfT-1">
          <mxGeometry relative="1" as="geometry" />
        </mxCell>
        <mxCell id="NtBQqP2QdUCN2QcjrBfT-27" value="Two processes are executing the same program text, but they have separate copies of the stack, data, and heap segments. The child&#39;s stack, data, and heap segments are initially exact duplicates of the corresponding parts the parent&#39;s memory. After the &lt;i&gt;fork()&lt;/i&gt;, each process can modify the variables in its stack, data, and heap segments without affecting the other process " style="rounded=1;whiteSpace=wrap;html=1;fillColor=#fff2cc;strokeColor=#d6b656;" vertex="1" parent="1">
          <mxGeometry x="412.29" y="40" width="307.71" height="170" as="geometry" />
        </mxCell>
        <mxCell id="NtBQqP2QdUCN2QcjrBfT-29" style="edgeStyle=orthogonalEdgeStyle;rounded=0;orthogonalLoop=1;jettySize=auto;html=1;exitX=1;exitY=0.5;exitDx=0;exitDy=0;entryX=1.04;entryY=0.34;entryDx=0;entryDy=0;entryPerimeter=0;fillColor=#fff2cc;strokeColor=#d6b656;dashed=1;" edge="1" parent="1" source="NtBQqP2QdUCN2QcjrBfT-27" target="NtBQqP2QdUCN2QcjrBfT-5">
          <mxGeometry relative="1" as="geometry">
            <Array as="points">
              <mxPoint x="740" y="125" />
              <mxPoint x="740" y="417" />
            </Array>
          </mxGeometry>
        </mxCell>
      </root>
    </mxGraphModel>
  </diagram>
</mxfile>
